<svg width="500" height="500" viewBox="0 0 500 500" fill="none" xmlns="http://www.w3.org/2000/svg">
<path d="M130.205 373.388C130.205 385.849 142.877 397.799 165.434 406.61C187.99 415.421 218.582 420.371 250.481 420.371C282.38 420.371 312.973 415.421 335.529 406.61C358.085 397.799 370.757 385.849 370.757 373.388H250.481H130.205Z" fill="black"/>
<path d="M370.276 378.838C370.276 346.939 357.604 316.347 335.048 293.791C312.491 271.235 281.899 258.563 250 258.563C218.101 258.563 187.508 271.235 164.952 293.791C142.396 316.347 129.724 346.939 129.724 378.838H250H370.276Z" fill="black"/>
<path d="M250.481 234.507C283.695 234.507 310.619 207.583 310.619 174.369C310.619 141.156 283.695 114.232 250.481 114.232C217.268 114.232 190.343 141.156 190.343 174.369C190.343 207.583 217.268 234.507 250.481 234.507Z" fill="black"/>
<circle cx="250" cy="246.535" r="180.796" stroke="black" stroke-width="27.78"/>
</svg>
